<svg xmlns="http://www.w3.org/2000/svg" width="128" height="128" viewBox="0 0 128 128">
  <!-- Nova Shift ships no favicon, so this is a mark in the studio palette
       rather than a scaled-up placeholder. -->
  <defs>
    <linearGradient id="ns" x1="0" y1="0" x2="1" y2="1">
      <stop offset="0%" stop-color="#24242a"/>
      <stop offset="100%" stop-color="#131316"/>
    </linearGradient>
  </defs>
  <rect width="128" height="128" rx="26" fill="url(#ns)"/>
  <path d="M22 96V32h10l30 44V32h10v64H62L32 52v44z" fill="#ff6a13"/>
  <path d="M84 96c-8 0-14-4-16-11l9-3c1 4 4 6 8 6 4 0 6-2 6-5 0-9-21-4-21-19 0-9 7-14 16-14 8 0 13 4 15 10l-9 3c-1-3-3-5-7-5s-6 2-6 5c0 8 21 3 21 19 0 9-7 14-16 14z" fill="#e8e6e3"/>
</svg>
